<svg xmlns="http://www.w3.org/2000/svg" viewBox="0 0 333333 293700" shape-rendering="geometricPrecision" text-rendering="geometricPrecision" image-rendering="optimizeQuality" fill-rule="evenodd" clip-rule="evenodd"><path d="M64137 103138l49356-68765C127274 15307 138993-457 165982 10c29304 508 40633 18113 55374 38923 13193 18624 26386 37249 39579 55874 20638 29038 47393 47999 14540 82312 19481 13453 32821 33518 40587 59586l17271 56995h-60813v-64711c0-6328-5178-11505-11506-11505H72319c-6328 0-11506 5177-11506 11505v64711H0c13920-52450 29405-101220 58722-117444-9589-6817-14822-14381-16453-22562-3758-18854 11565-36199 21869-50555zm96804 85150h11830l-2450 7192c13875-937 27211-10415 34313-28717 7516-19373 15649-9503 14915-42534l-553-24871c531-13998-5398-20728-17752-20229-23119 13504-46238 11061-69357 0-9486-2411-15112 4032-17752 17326 0 15485-2400 40365 4441 53983 3550 7068 7594 9182 11903 18155 7665 15963 20128 24915 32933 26652l-2470-6956zm661-35425c-11200 1972-8720 10312-25474-308h-2920c2553 3646 5861 10015 10113 11466 10807 3683 16795 539 22805-6973 6009 7512 11998 10655 22805 6973 4252-1451 7560-7819 10113-11466h-2920c-17138 10864-14151 1889-26265 183-2737-385-5530-355-8255 125zm1141-24079c-9696-1259-19392-994-29087 0 10185-8148 24605-12504 29087 0zm7845 0c9696-1678 19392-1420 29087 0-10185-8148-24605-12504-29087 0zm-15635-25676c2882 2516 5325 5529 7528 8812-8487-5178-17045-9357-25870-9739 1425-1911 3031-3157 4804-3792 5004-1793 9903 1546 13539 4719zm23425 0c-2882 2516-5325 5529-7528 8812 8487-5178 17045-9357 25870-9739-1425-1911-3031-3157-4804-3792-5004-1793-9903 1546-13539 4719z"/></svg>